<svg xmlns="http://www.w3.org/2000/svg"><symbol id="sprite-check" viewBox="0 0 1024 1024"><title/><path d="M937.814 429.207c-22.846 0-41.364 18.52-41.364 41.364v41.662c-.062 108.676-42.442 210.824-119.332 287.624-76.834 76.744-178.934 119-287.522 119h-.24C265.012 918.729 82.6 736.111 82.728 511.765c.062-108.674 42.442-210.822 119.334-287.626 76.834-76.744 178.936-119 287.522-119h.24c57.344.032 112.98 11.884 165.36 35.222 20.872 9.3 45.318-.082 54.618-20.948 9.296-20.866-.08-45.318-20.948-54.618-63.032-28.086-129.978-42.346-198.984-42.384h-.288c-130.658 0-253.534 50.856-345.986 143.2C51.072 258.027.076 380.945 0 511.721c-.074 130.772 50.778 253.748 143.198 346.272s215.336 143.52 346.11 143.596h.288c130.658 0 253.534-50.854 345.986-143.2 92.524-92.418 143.52-215.336 143.596-346.132v-41.684c0-22.846-18.518-41.366-41.364-41.366z"/><path d="M1011.884 79.605c-16.154-16.152-42.344-16.152-58.498 0L489.588 543.401 384.37 438.183c-16.152-16.154-42.344-16.154-58.496 0-16.154 16.154-16.154 42.344 0 58.498l134.468 134.468c8.076 8.078 18.664 12.116 29.25 12.116s21.172-4.038 29.25-12.116l493.042-493.046c16.154-16.154 16.154-42.344 0-58.498z"/></symbol><symbol fill="none" id="sprite-clock" viewBox="0 0 129 129"><title>clock</title><path d="M64.5 122.3c32 0 57.9-26 57.9-57.9 0-32-26-57.9-57.9-57.9S6.6 32.4 6.6 64.4c0 31.9 25.9 57.9 57.9 57.9zm0-107.7c27.5 0 49.8 22.3 49.8 49.8 0 27.5-22.3 49.8-49.8 49.8-27.5 0-49.8-22.4-49.8-49.8 0-27.5 22.3-49.8 49.8-49.8z" fill="#8ECC6D"/><path d="M61.8 71.2h19.3c2.3 0 4.1-1.8 4.1-4.1S83.4 63 81.1 63H65.9V39.2c0-2.3-1.8-4.1-4.1-4.1s-4.1 1.8-4.1 4.1v27.9c0 2.3 1.8 4.1 4.1 4.1z" fill="#8ECC6D"/></symbol><symbol id="sprite-drug" viewBox="0 0 1024 1024"><title/><path d="M768.554 173.215C611.648 173.215 484 300.863 484 457.769v51.25c-13.282 16.492-24.812 34.312-34.696 54.806A185.975 185.975 0 00422 532.253v-14.874c0-123.61-101.46-224.164-226.164-224.164-25.352 0-50.742-5.992-73.414-17.336L0 214.667v168.548c0 115.788 94.203 210 210 210h186.476c13.016 17.296 21.54 37.874 24.414 60.008-98.742.602-178.89 81.108-178.89 179.992 0 99.25 80.75 180 180 180h422c99.25 0 180-80.75 180-180s-80.75-180-180-180H484.124c6.36-45.508 26.986-87.25 58.064-120H754c148.876 0 270-121.126 270-270V10.785l-96.656 96.656c-42.414 42.414-98.804 65.773-158.79 65.773zm0 60c40.086 0 78.906-8.25 114.524-23.922-62.688 97.906-157.25 171.688-267.804 208.538a284.153 284.153 0 00-71.22 35.454c2.4-121.758 102.18-220.07 224.5-220.07zM360.312 494.183c-84.164-34.25-161.046-85.624-224.539-149.218 19.539 5.422 39.805 8.25 60.063 8.25 83.648 0 153.032 61.398 164.476 140.968zM60 383.215v-31.422c67.875 78.054 150.54 139.094 240.04 181.422H210c-82.711 0-150-67.29-150-150zm242 450c0-66.172 53.828-120 120-120h182v240H422c-66.172 0-120-53.836-120-120zm662 0c0 66.164-53.828 120-120 120H664v-240h180c66.172 0 120 53.828 120 120zm-210-360H638.704c126.882-43.47 234.592-130.524 303.648-245.618L964 191.519v71.696c0 115.788-94.204 210-210 210z"/></symbol><symbol id="sprite-hearth-pulse" viewBox="0 0 1024 1024"><title/><path d="M1024.001 382.025c0 29.117-4.771 57.841-14.03 85.455-43.495 196.802-419.605 434.877-435.607 445.007-5 3.104-10.61 4.727-16.329 4.727-5.708 0-11.394-1.438-16.393-4.727-4.303-2.799-110.269-69.671-217.705-161.585-12.865-11.089-14.216-30.217-3.421-43.027 11.057-12.701 30.163-14.248 43.048-3.453 80.085 68.419 161.018 123.732 194.623 146.02 112.96-73.646 362.33-261.015 392.896-399.203 7.985-24.411 11.59-46.611 11.59-69.148 0-78.451-42.711-150.768-111.489-188.655-87.83-48.735-205.397-26.263-269.654 51.197-11.547 13.986-35.293 13.986-47.057 0-64.453-77.514-181.933-99.811-269.643-51.283-68.996 37.972-111.707 110.247-111.707 188.621 0 22.385 3.791 44.682 10.849 66.218 4.531 20.152 13.202 39.857 24.237 60.303h178.164l61.185-140.616c5.24-12.037 17.756-19.607 30.63-18.257 13.115 1.144 24.052 10.577 26.971 23.387l45.042 190.43 58.267-95.541c5.49-9.074 15.37-14.618 26.044-14.618h110.574c16.829 0 30.511 13.627 30.511 30.532 0 16.819-13.681 30.522-30.511 30.522h-93.439l-87.775 144.178c-5.599 9.193-15.468 14.684-25.958 14.684-1.666 0-3.278-.13-4.771-.36-12.298-1.972-21.982-11.034-24.934-23.071l-41.165-173.459-32.526 74.867c-4.858 11.253-15.871 18.355-28.016 18.355H30.522C13.812 569.514 0 555.854 0 539.003c0-16.819 13.812-30.522 30.522-30.522h89.507c-6.35-15.153-11.481-29.857-14.661-44.083-8.518-24.705-13.126-53.473-13.126-82.437 0-100.672 54.748-193.36 143.209-242.095 102.459-56.676 238.042-38.855 322.713 40.707 84.441-79.572 219.928-97.383 322.56-40.707 88.352 48.669 143.274 141.422 143.274 242.16z"/></symbol><symbol id="sprite-hospital" viewBox="0 0 1024 1024"><title/><path d="M452 482c-35.196 0-67.578 12.218-93.196 32.594C346.368 461.594 298.734 422 242 422c-66.172 0-120 53.828-120 120 0 21.852 5.898 42.336 16.141 60H60V362H0v600h60V842h904v120h60V482H452zm0 60h30v60H367.156c12.39-34.922 45.734-60 84.844-60zm-270 0c0-33.086 26.914-60 60-60s60 26.914 60 60-26.914 60-60 60-60-26.914-60-60zM60 662h422v120H60V662zm904 120H542V542h422v240zM542 362h60V242h120v-60H602V62h-60v120H422v60h120v120z"/></symbol><symbol preserveAspectRatio="xMidYMid" class="lds-eclipse" style="background:0 0" id="sprite-loader" viewBox="0 0 100 100"><title>loader</title><path d="M11.136 61.084a40 40 0 0076.901-22.051 43 40 74 01-76.9 22.05"><animateTransform attributeName="transform" type="rotate" calcMode="linear" values="0 50 51.5;360 50 51.5" keyTimes="0;1" dur="1.5s" begin="0s" repeatCount="indefinite"/></path></symbol><symbol id="sprite-medical-history" viewBox="0 0 1024 1024"><title/><path d="M782 60V0H242v60H122v964h780V60H782zm-60 658H596v126H302V180h93.796c13.352 51.704 60.392 90 116.204 90s102.852-38.296 116.204-90H722v538zm0 60v16c0 27.57-22.43 50-50 50h-16v-66h66zM302 60h420v60H572v30c0 33.086-26.914 60-60 60s-60-26.914-60-60v-30H302V60zm540 904H182V120h60v784h430c60.656 0 110-49.344 110-110V120h60v844z"/><path d="M482 528h60v-60h60v-60h-60v-60h-60v60h-60v60h60v60zm-110 60h280v60H372v-60z"/></symbol><symbol id="sprite-medicine" viewBox="0 0 1024 1024"><title/><path d="M990.762 577.742c-37.352-31.226-92.906-28.062-126.382 7.118L726.668 728.374C715.606 691.196 681.128 664 640.402 664h-168.68c-10.616-6.57-71.35-82.274-182.172-71.18-53.616 5.368-101.874 30.484-137.429 71.18H30.004c-16.57 0-30 13.43-30 30v300c0 16.57 13.43 30 30 30h700.398a29.984 29.984 0 0023.242-11.032l250.172-306.492c31.336-39.352 25.564-96.46-13.054-128.734zm-33.79 91.242L716.168 964H60.004V724H166.34c9.531 0 18.484-4.742 23.891-11.852 26.015-34.258 63.413-55.438 105.297-59.624 84.382-8.454 128.07 52.85 145.054 64a29.997 29.997 0 0019.82 7.476h180c16.548 0 30 13.46 30 30 0 16.538-13.452 30-30 30h-180c-16.57 0-30 13.43-30 30s13.43 30 30 30c188.422-.212 180.312.516 190.07-.578 28.22 3.172 56.204-7.048 75.736-27.906l181.538-189.204c11.82-12.422 31.382-13.53 44.54-2.538 13.656 11.422 15.702 31.25 4.686 45.21z"/><path d="M332.004 420h150v150c0 16.57 13.43 30 30 30h180c16.57 0 30-13.43 30-30V420h150c16.57 0 30-13.43 30-30V210c0-16.57-13.43-30-30-30h-150V30c0-16.57-13.43-30-30-30h-180c-16.57 0-30 13.43-30 30v150h-150c-16.57 0-30 13.43-30 30v180c0 16.57 13.43 30 30 30zm30-180h150c16.57 0 30-13.43 30-30V60h120v150c0 16.57 13.43 30 30 30h150v120h-150c-16.57 0-30 13.43-30 30v150h-120V390c0-16.57-13.43-30-30-30h-150V240z"/></symbol><symbol id="sprite-place" viewBox="0 0 1024 1024"><title/><path d="M851.902 178.042C773.728 64.902 649.834 0 512.012 0s-261.716 64.902-339.89 178.042C94.332 290.61 76.37 433.124 123.978 559.034c12.734 34.384 32.976 67.79 60.02 99.094l300.756 353.268c6.802 7.996 16.768 12.604 27.258 12.604s20.456-4.606 27.258-12.604l300.672-353.172c27.164-31.484 47.38-64.854 60.008-98.962 47.704-126.138 29.742-268.652-48.048-381.22zm-19 356.144c-9.738 26.316-25.636 52.334-47.226 77.36-.06.06-.12.12-.168.192L512.012 932.974 238.348 611.536c-21.578-25.004-37.476-51.02-47.31-77.588-39.372-104.13-24.43-221.962 39.982-315.184 64.614-93.52 167.038-147.156 280.992-147.156 113.952 0 216.364 53.634 280.98 147.156 64.424 93.222 79.378 211.054 39.91 315.422z"/><path d="M512.012 212.438c-110.552 0-200.504 89.94-200.504 200.504s89.94 200.504 200.504 200.504 200.504-89.94 200.504-200.504c0-110.552-89.952-200.504-200.504-200.504zm0 329.398c-71.072 0-128.896-57.824-128.896-128.896s57.824-128.896 128.896-128.896c71.072 0 128.896 57.824 128.896 128.896s-57.824 128.896-128.896 128.896z"/></symbol><symbol id="sprite-play-rounded" viewBox="0 0 1024 1024"><title/><path d="M680.894 491.984L468.265 337.418c-7.804-5.658-18.163-6.509-26.716-2.112-8.621 4.361-14.005 13.22-14.005 22.795v309.03c0 9.677 5.385 18.502 14.005 22.865a25.84 25.84 0 0011.654 2.761c5.248 0 10.564-1.67 15.061-4.975l212.629-154.43c6.714-4.941 10.633-12.574 10.633-20.685.034-8.245-3.987-15.844-10.633-20.683z"/><path d="M512.017.068C229.19.068 0 229.259 0 512.084c0 282.724 229.19 511.849 512.017 511.849 282.758 0 511.983-229.158 511.983-511.849C1024.034 229.259 794.775.068 512.017.068zm0 938.437c-235.529 0-426.488-190.857-426.488-426.421 0-235.46 190.959-426.555 426.488-426.555 235.494 0 426.419 191.06 426.419 426.555.034 235.565-190.925 426.421-426.419 426.421z"/></symbol><symbol id="sprite-saline" viewBox="0 0 1024 1024"><title/><path d="M817.578 261.188c-69.382 0-125.836 56.452-125.836 125.844v468.062c0 60.046-48.86 108.906-108.914 108.906-55.68 0-101.704-42.016-108.118-96h58.946V710.804c42.812-25.366 65.836-51.14 67.68-53.25l7.422-8.484V112.593l-7.422-8.484C597.618 99.859 508.382 0 344.672 0 180.953 0 91.719 99.859 88 104.109l-7.422 8.484V649.07L88 657.554c2.219 2.532 34.899 39.118 95.688 68.212V826h60.001v-77.804c29.632 8.18 63.336 13.468 100.984 13.468 3.202 0 6.366-.054 9.516-.124V868h60.28c6.618 87.124 79.578 156 168.368 156 93.132 0 168.906-75.774 168.906-168.906V387.032c0-36.306 29.532-65.836 65.836-65.836s65.844 29.53 65.844 65.836v241.272h60V387.032c0-69.392-56.454-125.844-125.844-125.844zM389.11 63v46.477h-88.884V63c14.516-1.977 29.328-3 44.446-3 15.11 0 29.922 1.023 44.438 3zm-201.094 38.508a302.661 302.661 0 0152.202-24.102v92.07H449.11v-92.07a302.493 302.493 0 0152.21 24.109c22.798 13.281 38.812 26.734 47.438 34.742v99.414h-408.18v-99.406c8.648-8.039 24.656-21.477 47.438-34.758zm0 558.648c-22.805-13.288-38.82-26.734-47.438-34.75v-1.266h95v-60h-95v-48.406h95v-60h-95v-48.406h95v-60h-95v-51.656h408.18v329.734c-8.648 8.04-24.656 21.47-47.438 34.75-47.258 27.54-99.96 41.508-156.648 41.508-56.696 0-109.398-13.968-156.656-41.508zm285.64 79.07V808h-59.468v-52.594c21.632-3.976 41.468-9.602 59.468-16.18z"/></symbol><symbol id="sprite-sand-clock" viewBox="0 0 1024 1024"><title/><path d="M679.387 322.21v-26.828c0-16.312-13.228-29.538-29.54-29.538H374.151c-16.312 0-29.538 13.226-29.538 29.538v26.828a108.2 108.2 0 0065.64 99.556l90.11 38.616c7.374 3.158 15.898 3.158 23.274 0l90.1-38.616a108.193 108.193 0 0065.65-99.556zm-88.914 45.25l-78.478 33.634-78.468-33.634a49.156 49.156 0 01-29.758-42.538h216.462a49.16 49.16 0 01-29.758 42.538z"/><path d="M797.535 334.766V172.305l66.952-50.211a29.549 29.549 0 0011.822-23.633V29.539C876.309 13.227 863.081 0 846.769 0H177.23c-16.312 0-29.539 13.227-29.539 29.539v68.922a29.542 29.542 0 0011.812 23.633l66.954 50.211v162.461c0 75.124 40.28 141.024 100.358 177.234-60.078 36.21-100.358 102.11-100.358 177.234v162.462l-66.954 50.21a29.543 29.543 0 00-11.812 23.634v68.92c0 16.314 13.227 29.54 29.539 29.54h669.539c16.312 0 29.54-13.226 29.54-29.54v-68.92a29.55 29.55 0 00-11.822-23.634l-66.952-50.21V689.234c0-75.124-40.274-141.024-100.36-177.234 60.086-36.21 100.36-102.11 100.36-177.234zM206.769 59.078h610.462v24.617L758.151 128H265.847l-59.078-44.305V59.078zm610.462 905.844H206.769v-24.618L265.847 896h492.304l59.08 44.304v24.618zm-305.236-300.75l83.508 47.718c15.298 8.742 24.806 25.118 24.806 42.742v82.29H403.691v-82.29c0-17.616 9.508-34 24.804-42.742l83.5-47.718zm78.774-122.632c81.438 0 147.688 66.256 147.688 147.694v147.688h-59.07v-82.29c0-38.764-20.914-74.796-54.578-94.03l-83.274-47.594v-41.93c0-16.312-13.226-29.538-29.54-29.538-16.312 0-29.538 13.226-29.538 29.538v41.93l-83.274 47.594c-33.656 19.234-54.57 55.266-54.57 94.03v82.29h-59.078V689.234c0-81.438 66.258-147.694 147.696-147.694 16.312 0 29.538-13.228 29.538-29.54s-13.226-29.54-29.538-29.54c-81.438 0-147.696-66.256-147.696-147.694V187.078h452.922v147.688c0 81.438-66.25 147.694-147.688 147.694-16.312 0-29.538 13.228-29.538 29.54s13.226 29.54 29.538 29.54z"/></symbol><symbol id="sprite-shield" viewBox="0 0 1024 1024"><title/><path d="M948.358 162.906c-73.256 0-132.852-59.598-132.852-132.85V0H208.492v30.056c0 73.256-59.598 132.85-132.85 132.85H45.586v199.876c0 143.63 43.266 281.932 125.126 399.952 81.86 118.018 196.234 207.002 330.758 257.326L512 1024l10.532-3.94c134.526-50.324 248.9-139.306 330.756-257.326 81.86-118.02 125.126-256.322 125.126-399.952V162.906h-30.056zm-30.054 199.876h-.002c0 131.328-39.562 257.78-114.41 365.69-72.698 104.816-173.454 184.586-291.894 231.24-118.438-46.656-219.196-126.424-291.894-231.24-74.846-107.908-114.406-234.362-114.406-365.69v-142.1c82.38-12.94 147.63-78.19 160.57-160.57h491.466c12.938 82.38 78.188 147.63 160.57 160.57v142.1z"/><path d="M646.116 282.374L447.162 481.33l-69.282-69.282-127.516 127.518 196.798 196.798 326.47-326.472-127.516-127.518zM335.376 539.57l42.506-42.506 69.282 69.282L646.118 367.39l42.506 42.506-241.46 241.46L335.376 539.57z"/></symbol><symbol id="sprite-stethoscope" viewBox="0 0 1024 1024"><title/><path d="M903.685 727.016v-26.594c0-76.43-53.75-142.798-125.032-154.39-44.032-7.164-88.532 5.108-122.11 33.664-33.594 28.57-52.858 70.234-52.858 114.304v165c0 57.898-47.11 105-105 105-59.086 0-109-48.086-109-105V661.876c18.882-6.642 35.226-19.478 46.256-37.08l265.344-423.428c19.094-27.454 21.446-62.86 6.086-92.634C691.863 78.671 661.215 60 627.395 60h-27.71V30c0-16.57-13.43-30-30-30-16.572 0-30 13.43-30 30v120c0 16.57 13.428 30 30 30 16.57 0 30-13.43 30-30v-30h27.71c11.446 0 21.414 6.07 26.656 16.242 5.25 10.172 4.422 21.812-2.21 31.141-.336.477-.656.961-.97 1.461L493.481 420H225.239S66.247 167.836 65.926 167.383c-6.633-9.328-7.461-20.969-2.211-31.141C68.957 126.07 78.926 120 90.371 120h29.313v30c0 16.57 13.43 30 30 30s30-13.43 30-30V30c0-16.57-13.43-30-30-30s-30 13.43-30 30v30H90.371c-33.82 0-64.469 18.672-79.984 48.734-15.367 29.789-13.008 65.211 6.117 92.672l266.914 423.39c11.03 17.602 27.374 30.438 46.266 37.08V859c0 44.062 18.022 85.648 50.756 117.094 32.158 30.89 74.15 47.906 118.244 47.906 90.976 0 165-74.016 165-165V694c0-26.446 11.562-51.446 31.734-68.602 20.444-17.382 46.586-24.538 73.602-20.14 42.562 6.922 74.664 47.828 74.664 95.164v26.602c-68.384 13.93-120 74.538-120 146.976 0 82.71 67.288 150 150 150 82.71 0 150-67.29 150-150 0-72.438-51.618-133.046-120-146.984zM263.059 480h192.82l-70.772 112.938c-7.962 12.694-20.43 14.07-25.422 14.07-4.994 0-17.462-1.376-25.462-14.14L263.059 480zm610.626 484c-49.626 0-90-40.376-90-90s40.374-90 90-90c49.624 0 90 40.376 90 90s-40.376 90-90 90z"/><path d="M903.685 874c0 16.57-13.43 30-30 30-16.572 0-30-13.43-30-30s13.428-30 30-30c16.57 0 30 13.43 30 30z"/></symbol><symbol id="sprite-stopwatch" viewBox="0 0 1024 1024"><title/><path d="M379.867 1024H82.578c-18.242 0-33.031-14.79-33.031-33.032s14.789-33.03 33.031-33.03h297.289c18.242 0 33.032 14.788 33.032 33.03S398.109 1024 379.867 1024zm-66.062-99.095H82.578c-18.242 0-33.031-14.796-33.031-33.038 0-18.244 14.789-33.032 33.031-33.032h231.227c18.242 0 33.032 14.788 33.032 33.032 0 18.242-14.79 33.038-33.032 33.038zM181.68 825.803H82.578c-18.242 0-33.031-14.788-33.031-33.03s14.789-33.032 33.031-33.032h99.102c18.243 0 33.031 14.79 33.031 33.032s-14.788 33.03-33.031 33.03z"/><path d="M545.031 100.765V66.062h33.032c18.242 0 33.03-14.789 33.03-33.031S596.305 0 578.063 0H445.937c-18.242 0-33.038 14.789-33.038 33.031s14.796 33.031 33.038 33.031h33.032v34.703c-239.578 17.063-429.422 216.93-429.422 460.78 0 18.244 14.789 33.032 33.031 33.032s33.031-14.788 33.031-33.032c0-218.562 177.82-396.382 396.392-396.382 218.562 0 396.382 177.82 396.382 396.382 0 218.572-177.82 396.392-396.382 396.392-18.244 0-33.032 14.788-33.032 33.03s14.788 33.032 33.032 33.032c255 0 462.452-207.454 462.452-462.454 0-243.85-189.844-443.718-429.422-460.78z"/><path d="M518.625 620.953c17.712-.908 34.312-9.29 45.516-23l189.304-231.368c10.75-13.132 9.79-32.274-2.202-44.282-12.04-12.046-31.15-12.968-44.282-2.202L475.609 509.389c-13.726 11.228-22.108 27.822-23.016 45.532-.89 17.726 5.79 35.094 18.336 47.664l.032.032c11.804 11.804 27.89 18.422 44.5 18.422a88.425 88.425 0 003.164-.086z"/></symbol><symbol id="sprite-suitcase" viewBox="0 0 512 512"><title>suitcase</title><path d="M432.475 84.042h-58.219c-.5-7.833-6.993-14.036-14.951-14.036h-.773V37.839C358.531 16.975 341.382 0 320.303 0H191.697c-21.079 0-38.229 16.975-38.229 37.839v32.167h-.773c-7.958 0-14.452 6.203-14.951 14.036H79.525C36.103 84.042.777 119.368.777 162.79v284.886C.777 483.145 29.633 512 65.101 512H446.9c35.468 0 64.323-28.855 64.323-64.324V162.79c0-43.422-35.327-78.748-78.748-78.748zm-167.133 30c13.386 2.672 25.03 10.258 32.874 21.483 8.065 11.543 11.154 25.537 8.695 39.402a52.546 52.546 0 01-5.316 15.477l-42.149 4.837a15.002 15.002 0 00-10.649 6.402l-61.742 89.772a15.004 15.004 0 003.859 20.86l61.576 42.35a14.93 14.93 0 008.486 2.642c4.772 0 9.464-2.271 12.373-6.501l61.742-89.771a15 15 0 002.168-12.234l-10.678-41.54c4.848-8.351 8.162-17.432 9.869-27.054 3.858-21.756-.987-43.712-13.644-61.824a84.12 84.12 0 00-3.239-4.299h54.165V482H138.268V114.042h127.074zm41.164 135.575l-49.375 71.789-36.857-25.35 49.374-71.789 29.472-3.382 7.386 28.732zM183.469 37.839c0-4.469 3.537-7.839 8.229-7.839h128.605c4.691 0 8.229 3.37 8.229 7.839v32.167h-.774c-7.958 0-14.452 6.203-14.951 14.036H199.194c-.499-7.833-6.993-14.036-14.951-14.036h-.774V37.839zM30.777 447.676V162.79c0-26.88 21.868-48.748 48.748-48.748h28.742V482H65.101c-18.926 0-34.324-15.397-34.324-34.324zm450.446 0c0 18.927-15.397 34.324-34.323 34.324h-43.167V114.042h28.742c26.88 0 48.748 21.868 48.748 48.748v284.886z" data-original="#000000" class="active-path" data-old_color="#93cc7a" fill="#93cc7a"/></symbol><symbol id="sprite-task" viewBox="0 0 1024 1024"><title/><path d="M760.245 161.898H646.417v-35.109c0-17-13.78-30.781-30.78-30.781h-19.712V83.914C595.925 37.648 558.277 0 512.003 0c-46.266 0-83.914 37.648-83.914 83.914v12.094h-19.71c-17 0-30.79 13.781-30.79 30.781v35.109H263.753c-45.296 0-82.148 36.852-82.148 82.148v697.806c0 45.296 36.852 82.148 82.148 82.148h496.492c45.298 0 82.15-36.852 82.15-82.148V244.046c0-45.296-36.852-82.148-82.15-82.148zm-321.086-4.328h145.696v70.212H439.159V157.57zm50.492-73.656c0-12.32 10.032-22.352 22.352-22.352 12.328 0 22.36 10.031 22.36 22.352v12.094h-44.704V83.914h-.008zm291.18 857.938c0 11.352-9.234 20.586-20.586 20.586H263.753c-11.352 0-20.586-9.234-20.586-20.586V244.046c0-11.35 9.234-20.586 20.586-20.586h113.836v35.102c0 17 13.79 30.782 30.79 30.782h207.258c17 0 30.78-13.782 30.78-30.782V223.46h113.828c11.352 0 20.586 9.236 20.586 20.586v697.806z"/><path d="M665.457 392.546l-41.586 41.578-1.68-1.67-12.266-12.274c-12.024-12.016-31.508-12.016-43.53 0-12.024 12.024-12.024 31.508 0 43.53l35.71 35.72a30.779 30.779 0 0043.532 0l63.344-63.352c12.022-12.024 12.022-31.516 0-43.532-12.016-12.014-31.508-12.014-43.524 0zm-191.29 54.336H336.793c-17 0-30.782 13.782-30.782 30.782s13.782 30.782 30.782 30.782h137.374c17 0 30.782-13.782 30.782-30.782s-13.782-30.782-30.782-30.782zm191.29 113.15l-41.586 41.586-13.946-13.954c-12.024-12.016-31.516-12.016-43.53 0-12.024 12.024-12.024 31.516 0 43.532l35.71 35.71c6.008 6.016 13.882 9.024 21.758 9.024 7.882 0 15.758-3.008 21.766-9.024l63.352-63.344c12.022-12.022 12.022-31.516 0-43.53-12.016-12.024-31.508-12.024-43.524 0zm-191.29 54.328H336.793c-17 0-30.782 13.788-30.782 30.788 0 16.992 13.782 30.782 30.782 30.782h137.374c17 0 30.782-13.79 30.782-30.782 0-17-13.782-30.788-30.782-30.788zm191.29 113.148l-41.586 41.586-13.946-13.946c-12.024-12.024-31.508-12.024-43.53 0-12.024 12.016-12.024 31.508 0 43.532l35.71 35.71c6.008 6.008 13.89 9.016 21.766 9.016 7.874 0 15.75-3.008 21.766-9.016l63.344-63.35c12.022-12.016 12.022-31.508 0-43.532-12.016-12.016-31.508-12.016-43.524 0zm-191.29 54.336H336.793c-17 0-30.782 13.78-30.782 30.78s13.782 30.782 30.782 30.782h137.374c17 0 30.782-13.782 30.782-30.782s-13.782-30.78-30.782-30.78z"/></symbol><symbol id="sprite-telephone" viewBox="0 0 1024 1024"><title/><path d="M997.655 755.266L870.357 627.968c-35.096-35.094-92.204-35.094-127.298 0l-57.862 57.862c-26.588 26.588-69.852 26.58-96.43.01l-250.8-251.014c-26.65-26.65-26.654-69.784 0-96.438l57.862-57.862c34.942-34.94 35.43-91.87-.034-127.33L268.531 26.332c-35.096-35.094-92.202-35.094-127.204-.092L94.943 72.222c-126.56 126.558-126.56 332.484-.006 459.038l397.384 397.592c126.856 126.858 332.176 126.868 459.042 0l46.292-46.29c35.096-35.096 35.096-92.2 0-127.296zM183.667 68.764c11.698-11.698 30.73-11.7 42.466.032L353.397 195.66c11.726 11.726 11.726 30.704 0 42.432l-21.218 21.216-169.62-169.62 21.108-20.924zm351.094 817.662L137.375 488.83c-97.916-97.916-103.298-251.666-16.552-356.012l169.128 169.128c-44.44 50.378-42.588 127.144 5.574 175.306l250.792 251.002.008.008c48.11 48.112 124.872 50.084 175.312 5.584l169.132 169.132c-104.014 86.596-257.418 82.038-356.008-16.552zm420.464-46.296l-21.218 21.218-169.73-169.732 21.214-21.216c11.7-11.698 30.734-11.7 42.434 0l127.298 127.298c11.7 11.7 11.7 30.736.002 42.432z"/></symbol></svg>