<svg width="129" height="129" viewBox="0 0 129 129" fill="none" xmlns="http://www.w3.org/2000/svg">
<path d="M64.5 122.3C96.5 122.3 122.4 96.3 122.4 64.4C122.4 32.4 96.4 6.5 64.5 6.5C32.6 6.5 6.59998 32.4 6.59998 64.4C6.59998 96.3 32.5 122.3 64.5 122.3ZM64.5 14.6C92 14.6 114.3 36.9 114.3 64.4C114.3 91.9 92 114.2 64.5 114.2C37 114.2 14.7 91.8 14.7 64.4C14.7 36.9 37 14.6 64.5 14.6Z" fill="#8ECC6D"/>
<path d="M61.7999 71.2H81.0999C83.3999 71.2 85.1999 69.4 85.1999 67.1C85.1999 64.8 83.3999 63 81.0999 63H65.9V39.2C65.9 36.9 64.0999 35.1 61.7999 35.1C59.4999 35.1 57.7 36.9 57.7 39.2V67.1C57.7 69.4 59.4999 71.2 61.7999 71.2V71.2Z" fill="#8ECC6D"/>
</svg>
