<!-- Generated by IcoMoon.io -->
<svg version="1.1" xmlns="http://www.w3.org/2000/svg" width="1024" height="1024" viewBox="0 0 1024 1024">
<title></title>
<g id="icomoon-ignore">
</g>
<path d="M679.387 322.21v-26.828c0-16.312-13.228-29.538-29.54-29.538h-275.696c-16.312 0-29.538 13.226-29.538 29.538v26.828c0 43.384 25.766 82.462 65.64 99.556l90.11 38.616c7.374 3.158 15.898 3.158 23.274 0l90.1-38.616c39.884-17.094 65.65-56.172 65.65-99.556zM590.473 367.46l-78.478 33.634-78.468-33.634c-17.29-7.406-28.742-23.914-29.758-42.538h216.462c-1.016 18.624-12.47 35.132-29.758 42.538z"></path>
<path d="M797.535 334.766v-162.461l66.952-50.211c7.438-5.578 11.822-14.336 11.822-23.633v-68.922c0-16.312-13.228-29.539-29.54-29.539h-669.539c-16.312 0-29.539 13.227-29.539 29.539v68.922c0 9.297 4.375 18.055 11.812 23.633l66.954 50.211v162.461c0 75.124 40.28 141.024 100.358 177.234-60.078 36.21-100.358 102.11-100.358 177.234v162.462l-66.954 50.21c-7.437 5.578-11.812 14.336-11.812 23.634v68.92c0 16.314 13.227 29.54 29.539 29.54h669.539c16.312 0 29.54-13.226 29.54-29.54v-68.92c0-9.298-4.384-18.056-11.822-23.634l-66.952-50.21v-162.462c0-75.124-40.274-141.024-100.36-177.234 60.086-36.21 100.36-102.11 100.36-177.234v0zM206.769 59.078h610.462v24.617l-59.080 44.305h-492.304l-59.078-44.305v-24.617zM817.231 964.922h-610.462v-24.618l59.078-44.304h492.304l59.080 44.304v24.618zM511.995 664.172l83.508 47.718c15.298 8.742 24.806 25.118 24.806 42.742v82.29h-216.618v-82.29c0-17.616 9.508-34 24.804-42.742l83.5-47.718zM590.769 541.54c81.438 0 147.688 66.256 147.688 147.694v147.688h-59.070v-82.29c0-38.764-20.914-74.796-54.578-94.030l-83.274-47.594v-41.93c0-16.312-13.226-29.538-29.54-29.538-16.312 0-29.538 13.226-29.538 29.538v41.93l-83.274 47.594c-33.656 19.234-54.57 55.266-54.57 94.030v82.29h-59.078v-147.688c0-81.438 66.258-147.694 147.696-147.694 16.312 0 29.538-13.228 29.538-29.54s-13.226-29.54-29.538-29.54c-81.438 0-147.696-66.256-147.696-147.694v-147.688h452.922v147.688c0 81.438-66.25 147.694-147.688 147.694-16.312 0-29.538 13.228-29.538 29.54s13.226 29.54 29.538 29.54v0z"></path>
</svg>
