<!-- Generated by IcoMoon.io -->
<svg version="1.1" xmlns="http://www.w3.org/2000/svg" width="1024" height="1024" viewBox="0 0 1024 1024">
<title></title>
<g id="icomoon-ignore">
</g>
<path d="M452 482c-35.196 0-67.578 12.218-93.196 32.594-12.436-53-60.070-92.594-116.804-92.594-66.172 0-120 53.828-120 120 0 21.852 5.898 42.336 16.141 60h-78.141v-240h-60v600h60v-120h904v120h60c0-28.546 0-467.54 0-480-24.008 0-547.57 0-572 0zM452 542h30v60h-114.844c12.39-34.922 45.734-60 84.844-60zM182 542c0-33.086 26.914-60 60-60s60 26.914 60 60c0 33.086-26.914 60-60 60s-60-26.914-60-60zM60 662h422v120h-422v-120zM964 782h-422v-240h422v240z"></path>
<path d="M542 362h60v-120h120v-60h-120v-120h-60v120h-120v60h120v120z"></path>
</svg>
