<!-- Generated by IcoMoon.io -->
<svg version="1.1" xmlns="http://www.w3.org/2000/svg" width="1024" height="1024" viewBox="0 0 1024 1024">
<title></title>
<g id="icomoon-ignore">
</g>
<path d="M990.762 577.742c-37.352-31.226-92.906-28.062-126.382 7.118l-137.712 143.514c-11.062-37.178-45.54-64.374-86.266-64.374h-168.68c-10.616-6.57-71.35-82.274-182.172-71.18-53.616 5.368-101.874 30.484-137.429 71.18h-122.117c-16.57 0-30 13.43-30 30v300c0 16.57 13.43 30 30 30h700.398c9.008 0 17.548-4.046 23.242-11.032 0 0 250.094-306.398 250.172-306.492 31.336-39.352 25.564-96.46-13.054-128.734v0zM956.972 668.984l-240.804 295.016h-656.164v-240h106.336c9.531 0 18.484-4.742 23.891-11.852 26.015-34.258 63.413-55.438 105.297-59.624 84.382-8.454 128.070 52.85 145.054 64 5.476 4.82 12.524 7.476 19.82 7.476h180c16.548 0 30 13.46 30 30 0 16.538-13.452 30-30 30h-180c-16.57 0-30 13.43-30 30s13.43 30 30 30c188.422-0.212 180.312 0.516 190.070-0.578 28.22 3.172 56.204-7.048 75.736-27.906l181.538-189.204c11.82-12.422 31.382-13.53 44.54-2.538 13.656 11.422 15.702 31.25 4.686 45.21v0z"></path>
<path d="M332.004 420h150v150c0 16.57 13.43 30 30 30h180c16.57 0 30-13.43 30-30v-150h150c16.57 0 30-13.43 30-30v-180c0-16.57-13.43-30-30-30h-150v-150c0-16.57-13.43-30-30-30h-180c-16.57 0-30 13.43-30 30v150h-150c-16.57 0-30 13.43-30 30v180c0 16.57 13.43 30 30 30zM362.004 240h150c16.57 0 30-13.43 30-30v-150h120v150c0 16.57 13.43 30 30 30h150v120h-150c-16.57 0-30 13.43-30 30v150h-120v-150c0-16.57-13.43-30-30-30h-150v-120z"></path>
</svg>
