<!-- Generated by IcoMoon.io -->
<svg version="1.1" xmlns="http://www.w3.org/2000/svg" width="1024" height="1024" viewBox="0 0 1024 1024">
<title></title>
<g id="icomoon-ignore">
</g>
<path d="M817.578 261.188c-69.382 0-125.836 56.452-125.836 125.844v468.062c0 60.046-48.86 108.906-108.914 108.906-55.68 0-101.704-42.016-108.118-96h58.946v-157.196c42.812-25.366 65.836-51.14 67.68-53.25l7.422-8.484v-536.477l-7.422-8.484c-3.718-4.25-92.954-104.109-256.664-104.109-163.719 0-252.953 99.859-256.672 104.109l-7.422 8.484v536.477l7.422 8.484c2.219 2.532 34.899 39.118 95.688 68.212v100.234h60.001v-77.804c29.632 8.18 63.336 13.468 100.984 13.468 3.202 0 6.366-0.054 9.516-0.124v106.46h60.28c6.618 87.124 79.578 156 168.368 156 93.132 0 168.906-75.774 168.906-168.906v-468.062c0-36.306 29.532-65.836 65.836-65.836s65.844 29.53 65.844 65.836v241.272h60v-241.272c0-69.392-56.454-125.844-125.844-125.844v0zM389.11 63v46.477h-88.884v-46.477c14.516-1.977 29.328-3 44.446-3 15.11 0 29.922 1.023 44.438 3zM188.016 101.508c16.734-9.75 34.172-17.773 52.202-24.102v92.070h208.892v-92.070c18.038 6.336 35.476 14.352 52.21 24.109 22.798 13.281 38.812 26.734 47.438 34.742v99.414h-408.18v-99.406c8.648-8.039 24.656-21.477 47.438-34.758zM188.016 660.156c-22.805-13.288-38.82-26.734-47.438-34.75v-1.266h95v-60h-95v-48.406h95v-60h-95v-48.406h95v-60h-95v-51.656h408.18v329.734c-8.648 8.040-24.656 21.47-47.438 34.75-47.258 27.54-99.96 41.508-156.648 41.508-56.696 0-109.398-13.968-156.656-41.508zM473.656 739.226v68.774h-59.468v-52.594c21.632-3.976 41.468-9.602 59.468-16.18z"></path>
</svg>
