<!-- Generated by IcoMoon.io -->
<svg version="1.1" xmlns="http://www.w3.org/2000/svg" width="1024" height="1024" viewBox="0 0 1024 1024">
<title></title>
<g id="icomoon-ignore">
</g>
<path d="M937.814 429.207c-22.846 0-41.364 18.52-41.364 41.364v41.662c-0.062 108.676-42.442 210.824-119.332 287.624-76.834 76.744-178.934 119-287.522 119-0.080 0-0.16 0-0.24 0-224.344-0.128-406.756-182.746-406.628-407.092 0.062-108.674 42.442-210.822 119.334-287.626 76.834-76.744 178.936-119 287.522-119 0.080 0 0.16 0 0.24 0 57.344 0.032 112.98 11.884 165.36 35.222 20.872 9.3 45.318-0.082 54.618-20.948 9.296-20.866-0.080-45.318-20.948-54.618-63.032-28.086-129.978-42.346-198.984-42.384-0.104 0-0.184 0-0.288 0-130.658 0-253.534 50.856-345.986 143.2-92.524 92.416-143.52 215.334-143.596 346.11-0.074 130.772 50.778 253.748 143.198 346.272s215.336 143.52 346.11 143.596c0.102 0 0.184 0 0.288 0 130.658 0 253.534-50.854 345.986-143.2 92.524-92.418 143.52-215.336 143.596-346.132v-41.684c0-22.846-18.518-41.366-41.364-41.366z"></path>
<path d="M1011.884 79.605c-16.154-16.152-42.344-16.152-58.498 0l-463.798 463.796-105.218-105.218c-16.152-16.154-42.344-16.154-58.496 0-16.154 16.154-16.154 42.344 0 58.498l134.468 134.468c8.076 8.078 18.664 12.116 29.25 12.116s21.172-4.038 29.25-12.116l493.042-493.046c16.154-16.154 16.154-42.344 0-58.498z"></path>
</svg>
