<!-- Generated by IcoMoon.io -->
<svg version="1.1" xmlns="http://www.w3.org/2000/svg" width="1024" height="1024" viewBox="0 0 1024 1024">
<title></title>
<g id="icomoon-ignore">
</g>
<path d="M768.554 173.215c-156.906 0-284.554 127.648-284.554 284.554v51.25c-13.282 16.492-24.812 34.312-34.696 54.806-7.858-11.478-17.008-22.064-27.304-31.572v-14.874c0-123.61-101.46-224.164-226.164-224.164-25.352 0-50.742-5.992-73.414-17.336l-122.422-61.212v168.548c0 115.788 94.203 210 210 210h186.476c13.016 17.296 21.54 37.874 24.414 60.008-98.742 0.602-178.89 81.108-178.89 179.992 0 99.25 80.75 180 180 180h422c99.25 0 180-80.75 180-180s-80.75-180-180-180h-359.876c6.36-45.508 26.986-87.25 58.064-120h211.812c148.876 0 270-121.126 270-270v-252.43l-96.656 96.656c-42.414 42.414-98.804 65.773-158.79 65.773v0zM768.554 233.215c40.086 0 78.906-8.25 114.524-23.922-62.688 97.906-157.25 171.688-267.804 208.538-25.564 8.524-49.454 20.486-71.22 35.454 2.4-121.758 102.18-220.070 224.5-220.070v0zM360.312 494.183c-84.164-34.25-161.046-85.624-224.539-149.218 19.539 5.422 39.805 8.25 60.063 8.25 83.648 0 153.032 61.398 164.476 140.968zM60 383.215v-31.422c67.875 78.054 150.54 139.094 240.040 181.422h-90.040c-82.711 0-150-67.29-150-150v0zM302 833.215c0-66.172 53.828-120 120-120h182v240h-182c-66.172 0-120-53.836-120-120v0zM964 833.215c0 66.164-53.828 120-120 120h-180v-240h180c66.172 0 120 53.828 120 120zM754 473.215h-115.296c126.882-43.47 234.592-130.524 303.648-245.618l21.648-36.078v71.696c0 115.788-94.204 210-210 210z"></path>
</svg>
