<!-- Generated by IcoMoon.io -->
<svg version="1.1" xmlns="http://www.w3.org/2000/svg" width="1024" height="1024" viewBox="0 0 1024 1024">
<title></title>
<g id="icomoon-ignore">
</g>
<path d="M1024.001 382.025c0 29.117-4.771 57.841-14.030 85.455-43.495 196.802-419.605 434.877-435.607 445.007-5 3.104-10.61 4.727-16.329 4.727-5.708 0-11.394-1.438-16.393-4.727-4.303-2.799-110.269-69.671-217.705-161.585-12.865-11.089-14.216-30.217-3.421-43.027 11.057-12.701 30.163-14.248 43.048-3.453 80.085 68.419 161.018 123.732 194.623 146.020 112.96-73.646 362.33-261.015 392.896-399.203 7.985-24.411 11.59-46.611 11.59-69.148 0-78.451-42.711-150.768-111.489-188.655-87.83-48.735-205.397-26.263-269.654 51.197-11.547 13.986-35.293 13.986-47.057 0-64.453-77.514-181.933-99.811-269.643-51.283-68.996 37.972-111.707 110.247-111.707 188.621 0 22.385 3.791 44.682 10.849 66.218 4.531 20.152 13.202 39.857 24.237 60.303h178.164l61.185-140.616c5.24-12.037 17.756-19.607 30.63-18.257 13.115 1.144 24.052 10.577 26.971 23.387l45.042 190.43 58.267-95.541c5.49-9.074 15.37-14.618 26.044-14.618h110.574c16.829 0 30.511 13.627 30.511 30.532 0 16.819-13.681 30.522-30.511 30.522h-93.439l-87.775 144.178c-5.599 9.193-15.468 14.684-25.958 14.684-1.666 0-3.278-0.13-4.771-0.36-12.298-1.972-21.982-11.034-24.934-23.071l-41.165-173.459-32.526 74.867c-4.858 11.253-15.871 18.355-28.016 18.355h-355.98c-16.71-0.011-30.522-13.671-30.522-30.522 0-16.819 13.812-30.522 30.522-30.522h89.507c-6.35-15.153-11.481-29.857-14.661-44.083-8.518-24.705-13.126-53.473-13.126-82.437 0-100.672 54.748-193.36 143.209-242.095 102.459-56.676 238.042-38.855 322.713 40.707 84.441-79.572 219.928-97.383 322.56-40.707 88.352 48.669 143.274 141.422 143.274 242.16z"></path>
</svg>
