<!-- Generated by IcoMoon.io -->
<svg version="1.1" xmlns="http://www.w3.org/2000/svg" width="1024" height="1024" viewBox="0 0 1024 1024">
<title></title>
<g id="icomoon-ignore">
</g>
<path d="M782 60v-60h-540v60h-120v964h780v-964h-120zM722 718h-126v126h-294v-664h93.796c13.352 51.704 60.392 90 116.204 90s102.852-38.296 116.204-90h93.796v538zM722 778v16c0 27.57-22.43 50-50 50h-16v-66h66zM302 60h420v60h-150v30c0 33.086-26.914 60-60 60s-60-26.914-60-60v-30h-150v-60zM842 964h-660v-844h60v784h430c60.656 0 110-49.344 110-110v-674h60v844z"></path>
<path d="M482 528h60v-60h60v-60h-60v-60h-60v60h-60v60h60v60z"></path>
<path d="M372 588h280v60h-280v-60z"></path>
</svg>
