<!-- Generated by IcoMoon.io -->
<svg version="1.1" xmlns="http://www.w3.org/2000/svg" width="1024" height="1024" viewBox="0 0 1024 1024">
<title></title>
<g id="icomoon-ignore">
</g>
<path d="M851.902 178.042c-78.174-113.14-202.068-178.042-339.89-178.042s-261.716 64.902-339.89 178.042c-77.79 112.568-95.752 255.082-48.144 380.992 12.734 34.384 32.976 67.79 60.020 99.094l300.756 353.268c6.802 7.996 16.768 12.604 27.258 12.604s20.456-4.606 27.258-12.604l300.672-353.172c27.164-31.484 47.38-64.854 60.008-98.962 47.704-126.138 29.742-268.652-48.048-381.22zM832.902 534.186c-9.738 26.316-25.636 52.334-47.226 77.36-0.060 0.060-0.12 0.12-0.168 0.192l-273.496 321.236-273.664-321.438c-21.578-25.004-37.476-51.020-47.31-77.588-39.372-104.13-24.43-221.962 39.982-315.184 64.614-93.52 167.038-147.156 280.992-147.156 113.952 0 216.364 53.634 280.98 147.156 64.424 93.222 79.378 211.054 39.91 315.422z"></path>
<path d="M512.012 212.438c-110.552 0-200.504 89.94-200.504 200.504s89.94 200.504 200.504 200.504c110.564 0 200.504-89.94 200.504-200.504 0-110.552-89.952-200.504-200.504-200.504zM512.012 541.836c-71.072 0-128.896-57.824-128.896-128.896s57.824-128.896 128.896-128.896c71.072 0 128.896 57.824 128.896 128.896s-57.824 128.896-128.896 128.896z"></path>
</svg>
