<!-- Generated by IcoMoon.io -->
<svg version="1.1" xmlns="http://www.w3.org/2000/svg" width="1024" height="1024" viewBox="0 0 1024 1024">
<title></title>
<g id="icomoon-ignore">
</g>
<path d="M680.894 491.984l-212.629-154.566c-7.804-5.658-18.163-6.509-26.716-2.112-8.621 4.361-14.005 13.22-14.005 22.795v309.030c0 9.677 5.385 18.502 14.005 22.865 3.646 1.839 7.633 2.761 11.654 2.761 5.248 0 10.564-1.67 15.061-4.975l212.629-154.43c6.714-4.941 10.633-12.574 10.633-20.685 0.034-8.245-3.987-15.844-10.633-20.683z"></path>
<path d="M512.017 0.068c-282.827 0-512.017 229.191-512.017 512.016 0 282.724 229.19 511.849 512.017 511.849 282.758 0 511.983-229.158 511.983-511.849 0.034-282.825-229.225-512.016-511.983-512.016zM512.017 938.505c-235.529 0-426.488-190.857-426.488-426.421 0-235.46 190.959-426.555 426.488-426.555 235.494 0 426.419 191.060 426.419 426.555 0.034 235.565-190.925 426.421-426.419 426.421z"></path>
</svg>
