<!-- Generated by IcoMoon.io -->
<svg version="1.1" xmlns="http://www.w3.org/2000/svg" width="1024" height="1024" viewBox="0 0 1024 1024">
<title></title>
<g id="icomoon-ignore">
</g>
<path d="M903.685 727.016v-26.594c0-76.43-53.75-142.798-125.032-154.39-44.032-7.164-88.532 5.108-122.11 33.664-33.594 28.57-52.858 70.234-52.858 114.304v165c0 57.898-47.11 105-105 105-59.086 0-109-48.086-109-105v-197.124c18.882-6.642 35.226-19.478 46.256-37.080l265.344-423.428c19.094-27.454 21.446-62.86 6.086-92.634-15.508-30.063-46.156-48.734-79.976-48.734h-27.71v-30c0-16.57-13.43-30-30-30-16.572 0-30 13.43-30 30v120c0 16.57 13.428 30 30 30 16.57 0 30-13.43 30-30v-30h27.71c11.446 0 21.414 6.070 26.656 16.242 5.25 10.172 4.422 21.812-2.21 31.141-0.336 0.477-0.656 0.961-0.97 1.461l-157.39 251.156h-268.242c0 0-158.992-252.164-159.313-252.617-6.633-9.328-7.461-20.969-2.211-31.141 5.242-10.172 15.211-16.242 26.656-16.242h29.313v30c0 16.57 13.43 30 30 30s30-13.43 30-30v-120c0-16.57-13.43-30-30-30s-30 13.43-30 30v30h-29.313c-33.82 0-64.469 18.672-79.984 48.734-15.367 29.789-13.008 65.211 6.117 92.672l266.914 423.39c11.030 17.602 27.374 30.438 46.266 37.080v197.124c0 44.062 18.022 85.648 50.756 117.094 32.158 30.89 74.15 47.906 118.244 47.906 90.976 0 165-74.016 165-165v-165c0-26.446 11.562-51.446 31.734-68.602 20.444-17.382 46.586-24.538 73.602-20.14 42.562 6.922 74.664 47.828 74.664 95.164v26.602c-68.384 13.93-120 74.538-120 146.976 0 82.71 67.288 150 150 150 82.71 0 150-67.29 150-150 0-72.438-51.618-133.046-120-146.984v0zM263.059 480h192.82l-70.772 112.938c-7.962 12.694-20.43 14.070-25.422 14.070-4.994 0-17.462-1.376-25.462-14.14l-71.164-112.868zM873.685 964c-49.626 0-90-40.376-90-90s40.374-90 90-90c49.624 0 90 40.376 90 90s-40.376 90-90 90z"></path>
<path d="M903.685 874c0 16.57-13.43 30-30 30-16.572 0-30-13.43-30-30s13.428-30 30-30c16.57 0 30 13.43 30 30z"></path>
</svg>
