<!-- Generated by IcoMoon.io -->
<svg version="1.1" xmlns="http://www.w3.org/2000/svg" width="1024" height="1024" viewBox="0 0 1024 1024">
<title></title>
<g id="icomoon-ignore">
</g>
<path d="M760.245 161.898h-113.828v-35.109c0-17-13.78-30.781-30.78-30.781h-19.712v-12.094c0-46.266-37.648-83.914-83.922-83.914-46.266 0-83.914 37.648-83.914 83.914v12.094h-19.71c-17 0-30.79 13.781-30.79 30.781v35.109h-113.836c-45.296 0-82.148 36.852-82.148 82.148v697.806c0 45.296 36.852 82.148 82.148 82.148h496.492c45.298 0 82.15-36.852 82.15-82.148v-697.806c0-45.296-36.852-82.148-82.15-82.148v0zM439.159 157.57h145.696v70.212h-145.696v-70.212zM489.651 83.914c0-12.32 10.032-22.352 22.352-22.352 12.328 0 22.36 10.031 22.36 22.352v12.094h-44.704v-12.094h-0.008zM780.831 941.852c0 11.352-9.234 20.586-20.586 20.586h-496.492c-11.352 0-20.586-9.234-20.586-20.586v-697.806c0-11.35 9.234-20.586 20.586-20.586h113.836v35.102c0 17 13.79 30.782 30.79 30.782h207.258c17 0 30.78-13.782 30.78-30.782v-35.102h113.828c11.352 0 20.586 9.236 20.586 20.586v697.806z"></path>
<path d="M665.457 392.546l-41.586 41.578-1.68-1.67-12.266-12.274c-12.024-12.016-31.508-12.016-43.53 0-12.024 12.024-12.024 31.508 0 43.53l35.71 35.72c5.774 5.774 13.602 9.016 21.766 9.016s15.992-3.242 21.766-9.016l63.344-63.352c12.022-12.024 12.022-31.516 0-43.532-12.016-12.014-31.508-12.014-43.524 0z"></path>
<path d="M474.167 446.882h-137.374c-17 0-30.782 13.782-30.782 30.782s13.782 30.782 30.782 30.782h137.374c17 0 30.782-13.782 30.782-30.782s-13.782-30.782-30.782-30.782z"></path>
<path d="M665.457 560.032l-41.586 41.586-13.946-13.954c-12.024-12.016-31.516-12.016-43.53 0-12.024 12.024-12.024 31.516 0 43.532l35.71 35.71c6.008 6.016 13.882 9.024 21.758 9.024 7.882 0 15.758-3.008 21.766-9.024l63.352-63.344c12.022-12.022 12.022-31.516 0-43.53-12.016-12.024-31.508-12.024-43.524 0v0z"></path>
<path d="M474.167 614.36h-137.374c-17 0-30.782 13.788-30.782 30.788 0 16.992 13.782 30.782 30.782 30.782h137.374c17 0 30.782-13.79 30.782-30.782 0-17-13.782-30.788-30.782-30.788v0z"></path>
<path d="M665.457 727.508l-41.586 41.586-13.946-13.946c-12.024-12.024-31.508-12.024-43.53 0-12.024 12.016-12.024 31.508 0 43.532l35.71 35.71c6.008 6.008 13.89 9.016 21.766 9.016 7.874 0 15.75-3.008 21.766-9.016l63.344-63.35c12.022-12.016 12.022-31.508 0-43.532-12.016-12.016-31.508-12.016-43.524 0v0z"></path>
<path d="M474.167 781.844h-137.374c-17 0-30.782 13.78-30.782 30.78s13.782 30.782 30.782 30.782h137.374c17 0 30.782-13.782 30.782-30.782s-13.782-30.78-30.782-30.78z"></path>
</svg>
