<!-- Generated by IcoMoon.io -->
<svg version="1.1" xmlns="http://www.w3.org/2000/svg" width="1024" height="1024" viewBox="0 0 1024 1024">
<title></title>
<g id="icomoon-ignore">
</g>
<path d="M997.655 755.266l-127.298-127.298c-35.096-35.094-92.204-35.094-127.298 0l-57.862 57.862c-26.588 26.588-69.852 26.58-96.43 0.010l-250.8-251.014c-26.65-26.65-26.654-69.784 0-96.438 9.32-9.32 36.082-36.082 57.862-57.862 34.942-34.94 35.43-91.87-0.034-127.33l-127.264-126.864c-35.096-35.094-92.202-35.094-127.204-0.092-26.192 25.964-34.64 34.34-46.384 45.982-126.56 126.558-126.56 332.484-0.006 459.038l397.384 397.592c126.856 126.858 332.176 126.868 459.042 0l46.292-46.29c35.096-35.096 35.096-92.2 0-127.296zM183.667 68.764c11.698-11.698 30.73-11.7 42.466 0.032l127.264 126.864c11.726 11.726 11.726 30.704 0 42.432l-21.218 21.216-169.62-169.62 21.108-20.924zM534.761 886.426l-397.386-397.596c-97.916-97.916-103.298-251.666-16.552-356.012l169.128 169.128c-44.44 50.378-42.588 127.144 5.574 175.306l250.792 251.002c0.002 0.002 0.006 0.006 0.008 0.008 48.11 48.112 124.872 50.084 175.312 5.584l169.132 169.132c-104.014 86.596-257.418 82.038-356.008-16.552zM955.225 840.13l-21.218 21.218-169.73-169.732 21.214-21.216c11.7-11.698 30.734-11.7 42.434 0l127.298 127.298c11.7 11.7 11.7 30.736 0.002 42.432z"></path>
</svg>
